<svg width="400" height="400" xmlns="http://www.w3.org/2000/svg">
 <!-- Created with Method Draw - http://github.com/duopixel/Method-Draw/ -->
 <g>
  <title>background</title>
  <rect fill="none" id="canvas_background" height="402" width="402" y="-1" x="-1"/>
  <g display="none" overflow="visible" y="0" x="0" height="100%" width="100%" id="canvasGrid">
   <rect fill="url(#gridpattern)" stroke-width="0" y="0" x="0" height="100%" width="100%"/>
  </g>
 </g>
 <g>
  <title>Layer 1</title>
  <ellipse stroke="#000" ry="199.999997" rx="198.500004" id="svg_2" cy="199.999997" cx="198.500004" stroke-width="1.5" fill="#1192fc"/>
  <path id="svg_3" d="m275.609449,97.100735c-20.024495,-17.893703 -41.622015,-32.227679 -59.338641,-34.181832c-0.964483,-0.126756 -1.963411,-0.200697 -3.019749,-0.221823l-116.599051,0c-1.860073,0 -3.697183,0.665468 -5.006124,1.901338c-1.297459,1.204181 -2.066748,2.894259 -2.066748,4.616026l0,271.996963c0,1.711204 0.723362,3.348467 2.066748,4.5949c1.343386,1.225307 3.111604,1.890775 5.006124,1.890775l210.854257,0c1.860073,0 3.639773,-0.654905 4.98316,-1.890775c1.343386,-1.23587 2.089712,-2.873133 2.089712,-4.5949l0,-180.996814c-0.41335,-21.009785 -18.302205,-43.920908 -38.969688,-63.113858zm24.80098,237.572182l-196.708513,0l0,-258.98336l109.560625,0l0,0.021126c4.776485,-0.264075 8.8985,4.077314 12.056032,14.006523c2.870484,9.453875 3.593846,21.780883 3.582364,30.326341c0.022964,6.263852 -0.310012,10.467922 -0.310012,10.467922l-0.562615,6.887069l7.532149,0.073941c0.034446,0 17.406614,0.190134 34.445805,3.749861c16.37324,3.253401 29.175597,9.739076 30.369718,17.080353c0.045928,0.654905 0.05741,1.309811 0.045928,1.922464l0,174.447761l-0.011482,0z" stroke-opacity="null" stroke-width="1.5" stroke="#000" fill="#0d5591"/>
  <path stroke="#000" id="svg_4" d="m307.895548,59.81865l-22.02631,-13.545596c-5.557308,-3.414243 -12.880027,-1.770968 -16.381706,3.667622l-8.681814,13.520321l42.137264,25.894713l8.688661,-13.514044c3.48839,-5.445065 1.82351,-12.61638 -3.736095,-16.023016l0,0zm-122.073238,120.451769l42.139561,25.894447l68.680498,-106.975893l-42.159621,-25.901208l-68.660445,106.982647l0.000007,0.000007zm-6.43681,32.899859l-0.930712,24.32221l21.992521,-11.381686l20.437301,-10.558119l-40.653384,-24.997001l-0.845719,22.614603l0,0l-0.000007,-0.000007z" fill-opacity="null" stroke-opacity="null" stroke-width="1.5" fill="#0d5591"/>
 </g>
</svg>